<svg width="131" height="33" viewBox="0 0 131 33" fill="none" xmlns="http://www.w3.org/2000/svg">
<g clip-path="url(#clip0_1_4165)">
<g clip-path="url(#clip1_1_4165)">
<g clip-path="url(#clip2_1_4165)">
<path fill-rule="evenodd" clip-rule="evenodd" d="M30.148 31.8489L35.4053 29.4551L22.9865 2.44861L19.7781 9.29018L30.148 31.8489Z" fill="#006BFF"/>
<path fill-rule="evenodd" clip-rule="evenodd" d="M4.00623 25.1423C6.35505 23.4981 9.07868 22.3037 12.0971 21.5241L21.5324 0.814453H15.2306L4.00623 25.1423Z" fill="#006BFF"/>
<path fill-rule="evenodd" clip-rule="evenodd" d="M1.69226 29.69L7.09955 32.1887C9.33843 30.0648 12.2819 28.8204 15.3404 28.3557C19.3685 27.761 23.6963 28.4456 27.1245 30.1698L23.8811 23.1633C19.6283 22.1937 15.9351 22.4186 12.9166 23.1433C6.83968 24.6175 3.70625 27.671 1.69226 29.69Z" fill="#006BFF"/>
<path fill-rule="evenodd" clip-rule="evenodd" d="M14.9305 19.745C14.9305 20.2798 15.3803 20.7046 15.7901 20.7046C16.1249 20.7046 16.4247 20.6346 16.7596 20.6346C17.8041 20.6346 18.3988 20.5196 19.6331 20.6896L21.1274 20.8745C21.6471 20.8745 22.0969 20.5346 22.3218 20.1198C22.6566 19.3352 22.1369 18.6706 21.7271 17.756L19.898 13.753C19.7881 13.5581 19.7881 13.4932 19.6731 13.3282C19.1484 12.6236 18.0339 12.6186 17.5842 13.7131L15.0854 19.2153C15.0105 19.3652 14.9355 19.5351 14.9355 19.75L14.9305 19.745Z" fill="#006BFF"/>
<path fill-rule="evenodd" clip-rule="evenodd" d="M76.4646 17.1913C76.4646 16.5217 76.5396 16.0019 76.7595 15.3922C76.8344 15.1274 76.9444 14.8975 77.0943 14.6776C78.1288 12.9435 80.4176 12.3088 82.2667 13.1783C83.7809 13.908 84.6705 15.4322 84.6705 17.1514C84.6705 18.9305 83.8559 20.1998 82.4166 21.0444C81.3472 21.6541 79.758 21.6241 78.6485 21.0794C78.3886 20.9545 78.2437 20.8695 78.0188 20.6896L77.759 20.4597C77.3142 20.0549 76.9444 19.4902 76.7245 18.9255C76.5746 18.4257 76.4646 17.7261 76.4646 17.1813V17.1913ZM79.678 24.8825C81.4521 24.8825 82.8164 24.5926 84.2207 23.6481L84.6655 23.3233V24.4427H88.5436V9.87996H84.6655V11.0344C84.3706 10.8245 84.3307 10.7445 83.8159 10.4197C82.8164 9.82998 81.4521 9.44019 80.2327 9.44019H79.5681C78.1987 9.44019 76.5396 10.1248 75.5801 10.9545C75.5051 11.0344 75.4301 11.0794 75.3602 11.1594L74.8804 11.5991C74.6205 11.854 74.0658 12.5786 73.8809 12.8835C73.1812 14.0379 72.7365 15.3672 72.7365 16.7516C72.7365 16.9615 72.7015 17.0064 72.7015 17.1913L72.7365 18.0559C72.8864 19.1054 72.8864 19.2703 73.2512 20.2748C73.5461 21.0144 74.1758 22.0189 74.6905 22.5237L75.0203 22.8585C75.725 23.5182 75.8349 23.6331 76.7195 24.1279C76.7944 24.1628 76.7944 24.1728 76.8694 24.1978C77.2742 24.3927 77.609 24.5127 78.0538 24.6476C78.4586 24.7775 79.1233 24.8875 79.678 24.8875V24.8825Z" fill="#13306A"/>
<path fill-rule="evenodd" clip-rule="evenodd" d="M49.2683 21.4892C48.4537 21.4892 47.899 21.4892 47.1644 21.1094C46.7196 20.8795 46.6846 20.8295 46.3148 20.5347C46.1299 20.3747 45.985 20.2348 45.835 20.0399C45.7601 19.95 45.6851 19.855 45.6501 19.76C44.6906 18.3308 44.7256 15.937 45.6851 14.4727C46.2398 13.6631 47.2393 13.0084 48.2338 12.8585C49.1584 12.7186 49.968 12.8035 50.8225 13.2283C52.1519 13.888 53.1514 15.3323 53.1514 17.0864C53.1514 18.4507 52.7466 19.4302 52.0069 20.1698C51.3023 20.8845 50.3828 21.4842 49.2733 21.4842L49.2683 21.4892ZM41.2123 16.7516C41.2123 18.5856 41.3223 19.5602 42.1369 21.1044C42.6166 22.0139 43.2063 22.6086 43.946 23.2783C45.0154 24.2228 46.6796 24.8825 48.1189 24.8825C49.3733 24.8825 50.1129 24.8025 51.1873 24.4177C51.5572 24.2928 51.927 24.1179 52.2218 23.933C52.7766 23.6231 52.7416 23.6081 53.1464 23.3233V24.4427H57.0244V9.87996H53.1464V10.9994L52.2618 10.3997C50.7826 9.6001 49.823 9.44019 48.0489 9.44019C47.1993 9.44019 45.98 9.76502 45.2403 10.1798C44.5757 10.5596 44.5007 10.6446 43.946 11.0694L42.8365 12.1988C42.4317 12.7386 42.1369 13.2033 41.837 13.848C41.5022 14.5876 41.2073 15.6971 41.2073 16.7566L41.2123 16.7516Z" fill="#13306A"/>
<path fill-rule="evenodd" clip-rule="evenodd" d="M117.324 29.4152H121.612L129.923 10.1498C129.998 10.0549 130.033 9.93992 130.073 9.83997H125.75C125.75 9.9649 125.565 10.2997 125.53 10.4297C125.42 10.6246 125.345 10.8195 125.27 10.9944L122.756 16.7665C122.606 17.1613 122.462 17.5162 122.277 17.9209C122.202 18.1159 122.127 18.3008 122.017 18.4957C121.942 18.6456 121.832 18.9354 121.797 19.0854L121.022 17.3512C120.912 17.1563 120.837 16.9814 120.762 16.7765C120.612 16.3717 120.468 16.0269 120.318 15.6221C119.688 14.1179 119.023 12.5486 118.399 11.0244L117.919 9.84496H113.631C113.631 9.9699 114.59 12.1638 114.665 12.3138C115 13.1333 115.33 13.9279 115.7 14.7525C116.954 17.6761 118.214 20.6896 119.468 23.5981C119.688 24.0579 119.688 23.878 119.393 24.5076L117.584 28.7955C117.474 28.9804 117.364 29.2353 117.324 29.4202V29.4152Z" fill="#13306A"/>
<path fill-rule="evenodd" clip-rule="evenodd" d="M90.5028 24.4377H95.0855L98.2639 19.83C98.2989 19.9699 99.0785 21.0644 99.2234 21.2643C99.928 22.3037 100.703 23.3882 101.402 24.4377H106.02L101.107 17.3262C101.182 17.2663 101.327 17.0114 101.402 16.8865L105.39 10.7795C105.61 10.4646 105.795 10.1548 106.02 9.83495H101.402L100.997 10.4346C100.887 10.6445 100.738 10.8395 100.628 11.0494L98.4488 14.4127C98.3738 14.5176 98.2989 14.6526 98.2289 14.7125L97.4543 13.4882C97.3793 13.3932 97.3443 13.3132 97.2694 13.1983L96.085 11.3642C96.01 11.2493 95.935 11.1693 95.8651 11.0544C95.7551 10.8445 95.6452 10.6745 95.4953 10.4546C95.3453 10.2347 95.2354 10.0598 95.0905 9.82996H90.5078C90.7276 10.2547 93.1314 13.898 93.5013 14.4177L95.3103 17.1863C95.4203 17.3712 95.3853 17.3562 95.1604 17.6511L94.5307 18.5506C93.976 19.4302 93.2764 20.3747 92.6817 21.2543C92.2769 21.854 90.6477 24.1278 90.5028 24.4277V24.4377Z" fill="#13306A"/>
<path fill-rule="evenodd" clip-rule="evenodd" d="M58.9885 14.1428C58.9885 15.2073 59.3233 16.2318 60.058 16.9364C60.3528 17.2113 60.7626 17.5162 61.0925 17.7011C61.3123 17.816 61.4623 17.896 61.7221 18.0009C63.2764 18.5906 66.01 18.8755 66.8596 19.2703C68.4488 20.0199 67.5642 21.764 65.6402 21.764C64.5707 21.764 63.7211 21.7091 62.9815 21.0144L62.9465 20.9794C62.9465 20.9794 62.9465 20.9694 62.9465 20.9594C62.6867 20.6846 62.4318 20.2098 62.4318 19.795C62.2469 19.795 58.6287 20.5546 58.5137 20.5796C58.5487 20.8595 58.6637 21.3792 58.7336 21.6191C59.1035 22.5536 59.6932 23.2583 60.5427 23.778C61.5772 24.3877 63.1314 24.8775 64.7556 24.8775C66.1249 24.8775 67.2294 24.8075 68.4488 24.3227C69.3333 23.9629 70.003 23.5032 70.5527 22.8185C70.8476 22.4937 71.0325 22.0939 71.1824 21.6541C71.3673 21.1793 71.4423 20.6946 71.4773 20.0949L71.4023 19.2953C71.3673 19.0304 71.2923 18.7905 71.2174 18.5706C71.0325 18.1309 70.8126 17.761 70.5127 17.4362C69.4783 16.2568 68.2938 16.0519 66.8546 15.7071C66.3398 15.5821 64.3408 15.1873 63.901 15.0474C63.4962 14.9075 63.0165 14.6926 62.9015 14.2278C62.6067 13.2233 63.4913 12.4837 64.6757 12.4837C65.6352 12.4837 66.7096 12.7036 67.2644 13.6031C67.4143 13.813 67.5592 14.1578 67.5592 14.4827C67.8191 14.4827 68.2589 14.3577 68.4837 14.3128L71.2524 13.768C71.2524 13.5032 71.0675 13.0034 70.9925 12.7885C70.8426 12.4737 70.7326 12.2438 70.5477 11.9589C69.4383 10.3297 67.2594 9.43018 65.3403 9.43018C64.1959 9.43018 63.4563 9.43018 62.3868 9.79C60.5777 10.3897 58.9885 11.924 58.9885 14.1329V14.1428Z" fill="#13306A"/>
<path fill-rule="evenodd" clip-rule="evenodd" d="M108.164 24.4376H112.042V9.87488H108.164V24.4376Z" fill="#13306A"/>
<path fill-rule="evenodd" clip-rule="evenodd" d="M110.083 8.22075C110.822 8.22075 111.377 7.94089 111.782 7.58606C111.967 7.41615 112.152 7.16128 112.262 6.92639C112.556 6.33669 112.521 5.54209 112.262 4.94239C112.042 4.50261 111.522 3.97287 111.077 3.78797C110.927 3.728 110.817 3.69301 110.632 3.64803C109.818 3.44314 108.933 3.74299 108.413 4.24773C107.969 4.7125 107.749 5.19226 107.714 5.89691C107.679 6.69651 108.049 7.39616 108.713 7.82594C109.083 8.09081 109.563 8.22075 110.078 8.22075H110.083Z" fill="#13306A"/>
</g>
</g>
</g>
<defs>
<clipPath id="clip0_1_4165">
<rect width="130" height="32" fill="white" transform="translate(0.880249 0.810669)"/>
</clipPath>
<clipPath id="clip1_1_4165">
<rect width="130" height="32" fill="white" transform="translate(0.880249 0.810669)"/>
</clipPath>
<clipPath id="clip2_1_4165">
<rect width="130" height="32" fill="white" transform="translate(0.880249 0.810669)"/>
</clipPath>
</defs>
</svg>
